<?xml version="1.0"?>
<svg xmlns="http://www.w3.org/2000/svg" id="Layer_5" enable-background="new 0 0 64 64" height="512px" viewBox="0 0 64 64" width="512px"><g><path d="m42 41c-2.757 0-5 2.243-5 5s2.243 5 5 5 5-2.243 5-5-2.243-5-5-5zm0 8c-1.654 0-3-1.346-3-3s1.346-3 3-3 3 1.346 3 3-1.346 3-3 3z" data-original="#000000" class="active-path" data-old_color="#000000" fill="#FF0000"/><path d="m63 9h-12.047c-2.784 0-5.457 1.321-7.148 3.533l-10.37 13.56-4.808.961c-3.261.653-5.627 3.54-5.627 6.865v3.081h-1c-1.302 0-2.402.839-2.816 2h-2.184c0-2.757-2.243-5-5-5-.886 0-1.737.235-2.5.686-.763-.451-1.614-.686-2.5-.686-2.757 0-5 2.243-5 5 0 .817.21 1.624.602 2.348-1.017.934-1.602 2.24-1.602 3.652 0 2.757 2.243 5 5 5 1.086 0 2.138-.363 3-1.018.862.655 1.914 1.018 3 1.018 2.757 0 5-2.243 5-5h2.184c.414 1.161 1.514 2 2.816 2h1.685c1.126 2.361 3.53 4 6.315 4h4.522c1.617 2.41 4.365 4 7.478 4s5.862-1.59 7.478-4h13.522zm-36 26c1.103 0 2 .897 2 2s-.895 2-1.994 2h-2.006v-4zm-12 8v2c0 1.654-1.346 3-3 3-.864 0-1.662-.369-2.247-1.038l-.753-.86-.753.861c-.585.668-1.383 1.037-2.247 1.037-1.654 0-3-1.346-3-3 0-1.056.552-2.016 1.475-2.566l1.015-.604-.765-.901c-.33-.391-.725-1.042-.725-1.929 0-1.654 1.346-3 3-3 .675 0 1.322.234 1.871.678l.629.508.629-.508c.549-.444 1.196-.678 1.871-.678 1.654 0 3 1.346 3 3v2h4v2zm7 2c-.552 0-1-.449-1-1v-4c0-.551.448-1 1-1h1v5c0 .34.033.672.08 1zm20 8c-3.859 0-7-3.14-7-7s3.141-7 7-7 7 3.14 7 7-3.141 7-7 7zm0-16c-4.963 0-9 4.038-9 9 0 1.053.191 2.06.525 3h-3.525c-2.757 0-5-2.243-5-5v-3h2.006c2.202 0 3.994-1.794 3.994-4s-1.794-4-4-4h-1.911c.371-1.971 1.908-3.58 3.93-3.984l5.546-1.109 10.827-14.159c1.317-1.721 3.395-2.748 5.561-2.748h10.047v2h-9.941c-1.61 0-3.132.783-4.068 2.094l-8.991 12.586v7.32h4c6.065 0 11 4.935 11 11v3h-2.525c.334-.94.525-1.947.525-3 0-4.962-4.037-9-9-9zm19-22v12h-20.057l7.674-10.744c.563-.786 1.475-1.256 2.442-1.256zm-6 34v-3c0-7.168-5.832-13-13-13h-2v-4h21v2h-4v2h4v16z" data-original="#000000" class="active-path" data-old_color="#000000" fill="#FF0000"/><path d="m47 23h8v2h-8z" data-original="#000000" class="active-path" data-old_color="#000000" fill="#FF0000"/><path d="m57 23h2v2h-2z" data-original="#000000" class="active-path" data-old_color="#000000" fill="#FF0000"/></g> </svg>
