<?xml version="1.0"?>
<svg xmlns="http://www.w3.org/2000/svg" id="Layer_5" enable-background="new 0 0 64 64" height="512px" viewBox="0 0 64 64" width="512px" class=""><g><path d="m16 44.333-3.2 4.268c-.516.687-.8 1.54-.8 2.399 0 2.206 1.794 4 4 4s4-1.794 4-4c0-.859-.284-1.712-.8-2.399zm0 8.667c-1.103 0-2-.897-2-2 0-.436.138-.851.4-1.2l1.6-2.133 1.6 2.133c.262.35.4.765.4 1.2 0 1.103-.897 2-2 2z" data-original="#000000" class="active-path" data-old_color="#000000" fill="#FF0000"/><path d="m10 35c2.851 0 5-1.29 5-3s-2.149-3-5-3-5 1.29-5 3 2.149 3 5 3zm0-4c1.936 0 3 .751 3 1s-1.064 1-3 1-3-.751-3-1 1.064-1 3-1z" data-original="#000000" class="active-path" data-old_color="#000000" fill="#FF0000"/><path d="m48 25c-.34 0-.666.021-1 .03v-17.03c0-3.991-6.449-7-15-7s-15 3.009-15 7v17.03c-.334-.01-.66-.03-1-.03-8.551 0-15 3.009-15 7v24c0 3.99 6.449 7 15 7s15-3.01 15-7v-17.022c.332.009.661.022 1 .022s.668-.013 1-.022v17.022c0 3.99 6.449 7 15 7s15-3.01 15-7v-24c0-3.991-6.449-7-15-7zm0 2c7.661 0 13 2.635 13 5s-5.339 5-13 5c-1.596 0-3.142-.13-4.607-.358 2.261-1.218 3.607-2.826 3.607-4.642v-4.97c.333-.01.661-.03 1-.03zm-16-8c3.86 0 7 3.14 7 7s-3.14 7-7 7-7-3.14-7-7 3.14-7 7-7zm8.028 2.954c2.101-.598 3.785-1.407 4.972-2.368v4.414c0 1.288-1.589 2.613-4.147 3.572.091-.511.147-1.035.147-1.572 0-1.456-.355-2.828-.972-4.046zm-8.028-18.954c7.661 0 13 2.635 13 5s-5.339 5-13 5-13-2.635-13-5 5.339-5 13-5zm-13 8.583c2.544 2.075 7.298 3.417 13 3.417s10.456-1.342 13-3.417v4.417c0 1.608-2.44 3.26-6.132 4.197-1.652-1.952-4.116-3.197-6.868-3.197s-5.216 1.245-6.868 3.197c-3.692-.937-6.132-2.589-6.132-4.197zm0 8.004c1.187.96 2.871 1.77 4.972 2.368-.617 1.217-.972 2.589-.972 4.045 0 .537.056 1.061.147 1.572-2.558-.959-4.147-2.284-4.147-3.572zm-3 7.413c.339 0 .667.02 1 .03v4.97c0 1.816 1.346 3.424 3.607 4.642-1.465.228-3.011.358-4.607.358-7.661 0-13-2.635-13-5s5.339-5 13-5zm-13 16.587c1.187.96 2.871 1.77 4.972 2.367-.617 1.218-.972 2.59-.972 4.046 0 .537.056 1.061.146 1.572-2.557-.96-4.146-2.284-4.146-3.572zm20 6.413c0 3.859-3.14 7-7 7s-7-3.141-7-7 3.14-7 7-7 7 3.141 7 7zm-7 11c-7.661 0-13-2.635-13-5v-4.427c1.179.957 2.85 1.768 4.92 2.366 1.465 2.991 4.531 5.061 8.08 5.061s6.615-2.07 8.08-5.061c2.07-.598 3.741-1.409 4.92-2.366v4.427c0 2.365-5.339 5-13 5zm8.854-9.428c.09-.511.146-1.035.146-1.572 0-1.456-.355-2.828-.972-4.046 2.101-.598 3.785-1.408 4.972-2.368v4.414c0 1.288-1.589 2.612-4.146 3.572zm4.146-11.572c0 1.607-2.44 3.26-6.131 4.198-1.652-1.953-4.117-3.198-6.869-3.198s-5.216 1.245-6.868 3.197c-3.692-.936-6.132-2.589-6.132-4.197v-4.417c2.544 2.074 7.298 3.417 13 3.417 2.848 0 5.585-.364 7.959-1.034 1.508.43 3.201.743 5.041.904zm-10-8v-4.427c1.179.957 2.85 1.768 4.92 2.366 1.465 2.991 4.531 5.061 8.08 5.061s6.615-2.07 8.08-5.061c2.07-.597 3.741-1.409 4.92-2.366v4.427c0 2.365-5.339 5-13 5s-13-2.635-13-5zm16 11.587c1.187.96 2.871 1.77 4.972 2.367-.617 1.218-.972 2.59-.972 4.046 0 .537.056 1.061.146 1.572-2.557-.96-4.146-2.284-4.146-3.572zm20 6.413c0 3.859-3.14 7-7 7s-7-3.141-7-7 3.14-7 7-7 7 3.141 7 7zm-7 11c-7.661 0-13-2.635-13-5v-4.427c1.179.957 2.85 1.768 4.92 2.366 1.465 2.991 4.531 5.061 8.08 5.061s6.615-2.07 8.08-5.061c2.07-.598 3.741-1.409 4.92-2.366v4.427c0 2.365-5.339 5-13 5zm8.854-9.428c.09-.511.146-1.035.146-1.572 0-1.456-.355-2.828-.972-4.046 2.101-.598 3.785-1.408 4.972-2.368v4.414c0 1.288-1.589 2.612-4.146 3.572zm-1.985-7.374c-1.652-1.953-4.117-3.198-6.869-3.198s-5.216 1.245-6.868 3.197c-3.692-.936-6.132-2.589-6.132-4.197v-1.13c1.841-.161 3.534-.474 5.041-.904 2.374.67 5.111 1.034 7.959 1.034 5.702 0 10.456-1.343 13-3.417v4.417c0 1.607-2.44 3.26-6.131 4.198z" data-original="#000000" class="active-path" data-old_color="#000000" fill="#FF0000"/><path d="m48 44.333-3.2 4.268c-.516.687-.8 1.54-.8 2.399 0 2.206 1.794 4 4 4s4-1.794 4-4c0-.859-.284-1.712-.8-2.399zm0 8.667c-1.103 0-2-.897-2-2 0-.436.138-.851.4-1.2l1.6-2.133 1.6 2.133c.262.35.4.765.4 1.2 0 1.103-.897 2-2 2z" data-original="#000000" class="active-path" data-old_color="#000000" fill="#FF0000"/><path d="m54 35c2.851 0 5-1.29 5-3s-2.149-3-5-3-5 1.29-5 3 2.149 3 5 3zm0-4c1.936 0 3 .751 3 1s-1.064 1-3 1-3-.751-3-1 1.064-1 3-1z" data-original="#000000" class="active-path" data-old_color="#000000" fill="#FF0000"/><path d="m32 31c2.206 0 4-1.794 4-4 0-.86-.284-1.713-.8-2.4l-3.2-4.267-3.2 4.267c-.516.687-.8 1.54-.8 2.4 0 2.206 1.794 4 4 4zm-1.6-5.2 1.6-2.133 1.6 2.134c.258.343.4.769.4 1.199 0 1.103-.897 2-2 2s-2-.897-2-2c0-.43.142-.856.4-1.2z" data-original="#000000" class="active-path" data-old_color="#000000" fill="#FF0000"/><path d="m26 11c2.851 0 5-1.29 5-3s-2.149-3-5-3-5 1.29-5 3 2.149 3 5 3zm0-4c1.936 0 3 .751 3 1s-1.064 1-3 1-3-.751-3-1 1.064-1 3-1z" data-original="#000000" class="active-path" data-old_color="#000000" fill="#FF0000"/></g> </svg>
