<svg xmlns="http://www.w3.org/2000/svg" width="12" height="12" viewBox="0 0 12 12"><defs><style>.a{fill:#016ca0;}</style></defs><g transform="translate(-1 -1)"><path class="a" d="M6.04,1H1.42A.42.42,0,0,0,1,1.42V6.04a.42.42,0,0,0,.42.42H6.04a.42.42,0,0,0,.42-.42V1.42A.42.42,0,0,0,6.04,1Z"/><path class="a" d="M23.04,1H18.42a.42.42,0,0,0-.42.42V6.04a.42.42,0,0,0,.42.42h4.62a.42.42,0,0,0,.42-.42V1.42A.42.42,0,0,0,23.04,1Z" transform="translate(-10.46)"/><path class="a" d="M6.04,18H1.42a.42.42,0,0,0-.42.42v4.62a.42.42,0,0,0,.42.42H6.04a.42.42,0,0,0,.42-.42V18.42A.42.42,0,0,0,6.04,18Z" transform="translate(0 -10.46)"/><path class="a" d="M23.04,18H18.42a.42.42,0,0,0-.42.42v4.62a.42.42,0,0,0,.42.42h4.62a.42.42,0,0,0,.42-.42V18.42A.42.42,0,0,0,23.04,18Z" transform="translate(-10.46 -10.46)"/></g></svg>