<svg xmlns="http://www.w3.org/2000/svg" width="24" height="24" viewBox="0 0 24 24"><defs><style>.a{fill:none;}.b{fill:#fff;}</style></defs><rect class="a" width="24" height="24"/><path class="b" d="M18.5,7.715l4.209-4.208L21.293,2.093,1.822,21.562l1.414,1.415L8.4,17.809a10.174,10.174,0,0,0,3.6.69c6.352,0,11-6.5,11-6.5A19.856,19.856,0,0,0,18.5,7.715ZM12,16a3.985,3.985,0,0,1-1.493-.294l5.2-5.2A3.957,3.957,0,0,1,16,12,4,4,0,0,1,12,16Z"/><path class="b" d="M4.785,15.771,8.046,12.51A3.732,3.732,0,0,1,8,12a4,4,0,0,1,4-4,3.732,3.732,0,0,1,.51.046l2.155-2.155A9.688,9.688,0,0,0,12,5.5C5.648,5.5,1,12,1,12A19.831,19.831,0,0,0,4.785,15.771Z"/></svg>