<svg xmlns="http://www.w3.org/2000/svg" width="12" height="12" viewBox="0 0 12 12"><defs><style>.a{fill:#016ca0;}</style></defs><path class="a" d="M17.25,3H11V4.042h6.25A.521.521,0,1,0,17.25,3Z" transform="translate(-5.771 -1.438)"/><path class="a" d="M.521,2.6H1.563V3.646a.521.521,0,0,0,.521.521H4.167a.521.521,0,0,0,.521-.521V.521A.521.521,0,0,0,4.167,0H2.083a.521.521,0,0,0-.521.521V1.563H.521a.521.521,0,0,0,0,1.042Z"/><path class="a" d="M22.042,11H21v1.042h1.042a.521.521,0,0,0,0-1.042Z" transform="translate(-10.563 -5.521)"/><path class="a" d="M.521,10.6h6.25v1.042a.521.521,0,0,0,.521.521H9.375a.521.521,0,0,0,.521-.521V8.521A.521.521,0,0,0,9.375,8H7.292a.521.521,0,0,0-.521.521V9.563H.521a.521.521,0,0,0,0,1.042Z" transform="translate(0 -4.083)"/><path class="a" d="M17.25,19H11v1.042h6.25a.521.521,0,1,0,0-1.042Z" transform="translate(-5.771 -9.604)"/><path class="a" d="M4.167,16H2.083a.521.521,0,0,0-.521.521v1.042H.521a.521.521,0,0,0,0,1.042H1.563v1.042a.521.521,0,0,0,.521.521H4.167a.521.521,0,0,0,.521-.521V16.521A.521.521,0,0,0,4.167,16Z" transform="translate(0 -8.167)"/></svg>